<svg xmlns="http://www.w3.org/2000/svg" viewBox="0 0 200 200"><title>info</title><path d="M100,22a78,78,0,1,1-78,78,78.1,78.1,0,0,1,78-78m0-22A100,100,0,1,0,200,100,100,100,0,0,0,100,0Z" fill="#1da9d6"/><path d="M106.6,74.9a11.9,11.9,0,0,1,7.4,2.3,8.5,8.5,0,0,1,2.9,6.9,48.8,48.8,0,0,1-.8,6.2c-.5,2.9-.9,4.8-1.1,5.7l-7.2,39.9a10.7,10.7,0,0,0-.4,3.7c0,2.6.6,3.9,1.9,3.9s4.4-1.1,7.7-3.4a34.3,34.3,0,0,0,6.5-5.1c.4,0,1.1.5,2.1,1.6s1.6,1.8,1.6,2.2c-1.4,2.9-6.1,6.8-13.9,11.7s-14.5,7.4-19.9,7.4a11.3,11.3,0,0,1-7.3-2.4c-2-1.5-3-3.8-3-6.8a44.8,44.8,0,0,1,.8-6.2c.5-3,.9-4.9,1.1-5.8l7.2-39.9a14,14,0,0,0,.4-3.7c0-2.6-.6-3.9-1.9-3.9s-4.4,1.1-7.7,3.4a38.1,38.1,0,0,0-6.5,5.2c-.3,0-.9-.6-2-1.7s-1.7-1.8-1.7-2.2c1.4-2.9,6.1-6.8,13.9-11.7S101.2,74.9,106.6,74.9Zm5.3-32.8a11.6,11.6,0,0,1,8,2.9,9.1,9.1,0,0,1,3.2,7.1c0,3.6-1.5,6.7-4.5,9.5A15.3,15.3,0,0,1,108,65.8a11.5,11.5,0,0,1-8.1-2.9,9.3,9.3,0,0,1-3.2-7.2c0-3.6,1.6-6.7,4.6-9.4A15.1,15.1,0,0,1,111.9,42.1Z" fill="#1da9d6"/></svg>