<?xml version="1.0" encoding="utf-8"?>
<!-- Generator: Adobe Illustrator 24.0.0, SVG Export Plug-In . SVG Version: 6.00 Build 0)  -->
<svg version="1.1" baseProfile="tiny" id="Layer_1" xmlns="http://www.w3.org/2000/svg" xmlns:xlink="http://www.w3.org/1999/xlink"
	 x="0px" y="0px" viewBox="0 0 500 500" xml:space="preserve">
<g>
	<path d="M250,491c-64.4,0-124.9-25.1-170.4-70.6C34.1,374.9,9,314.4,9,250c0-64.4,25.1-124.9,70.6-170.4C125.1,34.1,185.6,9,250,9
		s124.9,25.1,170.4,70.6c45.5,45.5,70.6,106,70.6,170.4c0,64.4-25.1,124.9-70.6,170.4C374.9,465.9,314.4,491,250,491z"/>
	<path fill="#FFFFFF" d="M250,18c31.3,0,61.7,6.1,90.3,18.2C367.9,47.9,392.7,64.6,414,86c21.3,21.3,38,46.1,49.7,73.7
		c12.1,28.6,18.2,59,18.2,90.3s-6.1,61.7-18.2,90.3c-11.7,27.6-28.4,52.4-49.7,73.7c-21.3,21.3-46.1,38-73.7,49.7
		c-28.6,12.1-59,18.2-90.3,18.2c-31.3,0-61.7-6.1-90.3-18.2c-27.6-11.7-52.4-28.4-73.7-49.7c-21.3-21.3-38-46.1-49.7-73.7
		C24.1,311.7,18,281.3,18,250s6.1-61.7,18.2-90.3C47.9,132.1,64.6,107.3,86,86c21.3-21.3,46.1-38,73.7-49.7
		C188.3,24.1,218.7,18,250,18 M250,0C111.9,0,0,111.9,0,250s111.9,250,250,250s250-111.9,250-250S388.1,0,250,0L250,0z"/>
</g>
<g>
	<polyline fill="none" stroke="#FFFFFF" stroke-width="18" stroke-linecap="round" stroke-miterlimit="10" points="286.7,290.5 
		249.6,352.4 139.6,168.7 	"/>
	
		<line fill="none" stroke="#FFFFFF" stroke-width="18" stroke-linecap="round" stroke-miterlimit="10" x1="213.4" y1="412.8" x2="249.6" y2="352.4"/>
	<polyline fill="none" stroke="#FFFFFF" stroke-width="18" stroke-linecap="round" stroke-miterlimit="10" points="360.4,167.3 
		286.7,290.5 213,167.3 	"/>
	
		<line fill="none" stroke="#FFFFFF" stroke-width="18" stroke-linecap="round" stroke-miterlimit="10" x1="323.7" y1="228.7" x2="286.8" y2="167.1"/>
	<circle stroke="#FFFFFF" stroke-width="18" stroke-linecap="round" stroke-miterlimit="10" cx="139.6" cy="168.7" r="21.5"/>
	
		<circle fill="#FFFFFF" stroke="#FFFFFF" stroke-width="18" stroke-linecap="round" stroke-miterlimit="10" cx="287.4" cy="288" r="21.5"/>
	<circle stroke="#FFFFFF" stroke-width="18" stroke-linecap="round" stroke-miterlimit="10" cx="213" cy="168.7" r="21.5"/>
	<circle stroke="#FFFFFF" stroke-width="18" stroke-linecap="round" stroke-miterlimit="10" cx="286.8" cy="168.7" r="21.5"/>
	<circle stroke="#FFFFFF" stroke-width="18" stroke-linecap="round" stroke-miterlimit="10" cx="360.4" cy="168.7" r="21.5"/>
</g>
</svg>
