<?xml version="1.0" encoding="utf-8"?>
<!-- Generator: Adobe Illustrator 24.0.0, SVG Export Plug-In . SVG Version: 6.00 Build 0)  -->
<svg version="1.1" id="Layer_1" xmlns="http://www.w3.org/2000/svg" xmlns:xlink="http://www.w3.org/1999/xlink" x="0px" y="0px"
	 viewBox="0 0 500 500" style="enable-background:new 0 0 500 500;" xml:space="preserve">
<style type="text/css">
	.st0{fill:none;stroke:#000000;stroke-width:20;stroke-linecap:round;stroke-miterlimit:10;}
	.st1{fill:#FFFFFF;stroke:#000000;stroke-width:20;stroke-linecap:round;stroke-miterlimit:10;}
	.st2{stroke:#000000;stroke-width:20;stroke-linecap:round;stroke-miterlimit:10;}
</style>
<path d="M431.2,22.1c-25,0-45.3,20.3-45.3,45.3c0,12.4,5,23.7,13.2,31.9l0,0l-28.2,47l-28.2-47.2c0,0,0,0,0,0
	c8.1-8.2,13-19.4,13-31.8c0-25-20.3-45.3-45.3-45.3s-45.3,20.3-45.3,45.3s20.3,45.3,45.3,45.3c5.4,0,10.6-1,15.4-2.7l33.4,55.8
	l-32.8,54.7c-4.8-1.7-9.9-2.6-15.2-2.6c-6,0-11.7,1.2-17,3.3l-73-121.9c8.1-8.2,13.2-19.5,13.2-31.9c0-25-20.3-45.3-45.3-45.3
	s-45.3,20.3-45.3,45.3s20.3,45.3,45.3,45.3c5.4,0,10.5-0.9,15.3-2.7l73.4,122.6c-7.4,8.1-11.9,18.8-11.9,30.5
	c0,13.3,5.7,25.2,14.9,33.5l-31.6,52.7L100.1,100.1c0,0,0,0,0,0c8.6-8.3,14-19.9,14-32.7c0-25-20.3-45.3-45.3-45.3
	c-25,0-45.3,20.3-45.3,45.3s20.3,45.3,45.3,45.3c4.9,0,9.7-0.8,14.1-2.3l154.7,258.5l-56.2,93.9c-2.8,4.7-1.3,10.9,3.4,13.7
	c1.6,1,3.4,1.4,5.1,1.4c3.4,0,6.7-1.7,8.6-4.9l50.7-84.7l0,0l49-81.8c4.1,1.2,8.5,1.9,13,1.9c25,0,45.3-20.3,45.3-45.3
	c0-12.5-5.1-23.7-13.2-31.9l35.8-59.8c0.2-0.3,0.4-0.6,0.6-0.9l36.2-60.4c4.8,1.7,9.9,2.7,15.3,2.7c25,0,45.3-20.3,45.3-45.3
	S456.2,22.1,431.2,22.1z M285.1,67.4c0-14,11.3-25.3,25.3-25.3s25.3,11.4,25.3,25.3s-11.3,25.3-25.3,25.3S285.1,81.3,285.1,67.4z
	 M337.1,104c-0.1,0.1-0.2,0.2-0.4,0.3C336.9,104.1,337,104,337.1,104z M328.4,109c-0.1,0-0.1,0.1-0.2,0.1
	C328.3,109,328.3,109,328.4,109z M335.1,105.3c-0.2,0.1-0.3,0.2-0.5,0.3C334.8,105.5,335,105.4,335.1,105.3z M333.1,106.6
	c-0.2,0.1-0.4,0.2-0.5,0.3C332.7,106.8,332.9,106.7,333.1,106.6z M330.9,107.8c-0.2,0.1-0.3,0.2-0.5,0.3
	C330.5,107.9,330.7,107.9,330.9,107.8z M163.9,67.4c0-14,11.4-25.3,25.3-25.3s25.3,11.4,25.3,25.3s-11.4,25.3-25.3,25.3
	S163.9,81.3,163.9,67.4z M217.7,102.6c-0.1,0.1-0.2,0.2-0.4,0.3C217.5,102.7,217.6,102.7,217.7,102.6z M215.8,104
	c-0.2,0.1-0.3,0.2-0.5,0.3C215.5,104.2,215.7,104.1,215.8,104z M209.2,108c0,0-0.1,0-0.1,0.1C209.2,108,209.2,108,209.2,108z
	 M213.8,105.4c-0.2,0.1-0.3,0.2-0.5,0.3C213.5,105.6,213.6,105.5,213.8,105.4z M211.7,106.7c-0.1,0.1-0.3,0.2-0.4,0.2
	C211.4,106.9,211.5,106.8,211.7,106.7z M43.5,67.4c0-14,11.4-25.3,25.3-25.3s25.3,11.4,25.3,25.3S82.7,92.7,68.8,92.7
	S43.5,81.3,43.5,67.4z M87.7,108.5C87.6,108.6,87.6,108.6,87.7,108.5C87.6,108.6,87.6,108.6,87.7,108.5z M85.4,109.5
	c0,0-0.1,0-0.1,0C85.3,109.6,85.3,109.5,85.4,109.5z M411.2,108c0,0,0.1,0,0.1,0.1C411.3,108,411.2,108,411.2,108z M402.7,102.6
	c0.1,0.1,0.2,0.2,0.4,0.3C402.9,102.7,402.8,102.7,402.7,102.6z M404.6,104c0.2,0.1,0.3,0.2,0.5,0.3
	C404.9,104.2,404.8,104.1,404.6,104z M406.6,105.4c0.2,0.1,0.3,0.2,0.5,0.3C406.9,105.6,406.8,105.5,406.6,105.4z M408.8,106.7
	c0.1,0.1,0.3,0.2,0.4,0.2C409,106.9,408.9,106.8,408.8,106.7z M431.2,92.7c-14,0-25.3-11.4-25.3-25.3s11.3-25.3,25.3-25.3
	s25.3,11.4,25.3,25.3S445.2,92.7,431.2,92.7z"/>
</svg>
